<?xml version="1.0" encoding="UTF-8" standalone="no"?>
<!-- Created with Inkscape (http://www.inkscape.org/) -->

<svg
   width="128.06163mm"
   height="128.06163mm"
   viewBox="0 0 128.06163 128.06163"
   version="1.1"
   id="svg1"
   inkscape:version="1.1.2 (0a00cf5339, 2022-02-04)"
   sodipodi:docname="papermerge3.svg"
   inkscape:export-filename="/home/eugen/Desktop/32.png"
   inkscape:export-xdpi="6.3469443"
   inkscape:export-ydpi="6.3469443"
   xmlns:inkscape="http://www.inkscape.org/namespaces/inkscape"
   xmlns:sodipodi="http://sodipodi.sourceforge.net/DTD/sodipodi-0.dtd"
   xmlns="http://www.w3.org/2000/svg"
   xmlns:svg="http://www.w3.org/2000/svg">
  <sodipodi:namedview
     id="namedview1"
     pagecolor="#ffffff"
     bordercolor="#666666"
     borderopacity="1.0"
     inkscape:showpageshadow="2"
     inkscape:pageopacity="0.0"
     inkscape:pagecheckerboard="0"
     inkscape:deskcolor="#d1d1d1"
     inkscape:document-units="mm"
     inkscape:zoom="1.0280428"
     inkscape:cx="87.544993"
     inkscape:cy="248.53051"
     inkscape:window-width="1860"
     inkscape:window-height="1016"
     inkscape:window-x="0"
     inkscape:window-y="0"
     inkscape:window-maximized="1"
     inkscape:current-layer="layer1"
     showgrid="false"
     inkscape:pageshadow="2"
     fit-margin-top="0"
     fit-margin-left="0"
     fit-margin-right="0"
     fit-margin-bottom="0"
     showborder="true"
     inkscape:snap-grids="false"
     inkscape:snap-to-guides="false"
     showguides="false">
    <inkscape:grid
       type="xygrid"
       id="grid90362" />
  </sodipodi:namedview>
  <defs
     id="defs1" />
  <g
     inkscape:label="Layer 1"
     inkscape:groupmode="layer"
     id="layer1"
     transform="translate(-29.71353,-63.520397)">
    <rect
       style="fill:#1a1a1a;fill-opacity:0.930848;fill-rule:evenodd;stroke:none;stroke-width:8.03661;stroke-linecap:round;stroke-linejoin:miter;stroke-miterlimit:4;stroke-dasharray:none;stroke-opacity:1"
       id="rect83622"
       width="130.33575"
       height="133.40208"
       x="28.968416"
       y="60.850311"
       inkscape:export-filename="/home/eugen/Desktop/16.png"
       inkscape:export-xdpi="3.1199999"
       inkscape:export-ydpi="3.1199999" />
    <path
       id="path2"
       style="fill:#00a100;fill-opacity:1;fill-rule:evenodd;stroke:none;stroke-width:2.29466;stroke-linecap:round;stroke-linejoin:round;stroke-opacity:1"
       d="m 52.371157,157.10678 a 39.649817,43.727684 80.667371 0 0 38.333792,13.60677 39.649817,43.727684 80.667371 0 0 -7.347257,-37.08512 39.649817,43.727684 80.667371 0 0 -38.340921,-13.60696 39.649817,43.727684 80.667371 0 0 7.354386,37.08531 z"
       inkscape:transform-center-x="0.57750077"
       inkscape:transform-center-y="5.8872774" />
    <path
       id="path4"
       style="fill:#00a100;fill-opacity:1;fill-rule:evenodd;stroke:none;stroke-width:2.29466;stroke-linecap:round;stroke-linejoin:round;stroke-opacity:1"
       d="m 103.03892,133.97871 a 43.644117,39.725736 9.8971779 0 0 -10.032497,36.55227 43.644117,39.725736 9.8971779 0 0 39.239437,-11.22836 43.644117,39.725736 9.8971779 0 0 10.03181,-36.55874 43.644117,39.725736 9.8971779 0 0 -39.23875,11.23483 z"
       inkscape:transform-center-x="5.913484"
       inkscape:transform-center-y="0.14763752" />
    <path
       id="path1"
       style="fill:#00d400;fill-rule:evenodd;stroke:none;stroke-width:2.29466;stroke-linecap:round;stroke-linejoin:round;stroke-opacity:1"
       d="M 71.258751,138.10603 A 39.240668,44.183616 89.875158 0 0 91.647159,170.83494 39.240668,44.183616 89.875158 0 0 111.454,137.80712 39.240668,44.183616 89.875158 0 0 91.060164,105.07394 39.240668,44.183616 89.875158 0 0 71.258751,138.10603 Z"
       inkscape:transform-center-x="4.16007"
       inkscape:transform-center-y="4.2041446" />
  </g>
</svg>
