<?xml version="1.0" encoding="UTF-8"?>
<svg version="1.1" xmlns="http://www.w3.org/2000/svg" width="329" height="171">
<path d="M0 0 C0.75157883 -0.0049649 1.50315765 -0.00992981 2.2775116 -0.01504517 C4.76468827 -0.02965344 7.25180114 -0.03646684 9.73901367 -0.04199219 C11.46913149 -0.0477451 13.19924928 -0.05350281 14.92936707 -0.05926514 C18.55838315 -0.06977157 22.1873771 -0.07561646 25.81640625 -0.07910156 C30.46017248 -0.08458309 35.10364503 -0.10860524 39.74731922 -0.13707352 C43.32216742 -0.15572407 46.89694526 -0.1609068 50.471838 -0.16243744 C52.18341361 -0.16545945 53.89498812 -0.17347272 55.60651588 -0.18662262 C58.00482962 -0.20373263 60.40243075 -0.20179095 62.80078125 -0.1953125 C63.50385406 -0.20452728 64.20692688 -0.21374207 64.93130493 -0.22323608 C70.21714066 -0.17864825 74.25915615 1.08097283 78.23901367 4.62597656 C82.52471562 10.02968771 82.71989889 13.57639179 82.75561523 20.38891602 C82.76306259 21.47020279 82.76306259 21.47020279 82.7706604 22.57333374 C82.78523851 24.95287031 82.79207688 27.33234021 82.79760742 29.71191406 C82.80336263 31.37094626 82.80912032 33.02997844 82.81488037 34.68901062 C82.8253781 38.16661895 82.83122874 41.64420424 82.8347168 45.12182617 C82.84019771 49.56705335 82.86422221 54.01197365 82.89268875 58.45710468 C82.91135879 61.88444393 82.91652306 65.3117099 82.91805267 68.73909569 C82.92107008 70.37727727 82.9290677 72.01545783 82.94223785 73.65358925 C82.95938959 75.95101564 82.95739624 78.24770069 82.95092773 80.54516602 C82.95639618 82.50230278 82.95639618 82.50230278 82.9619751 84.49897766 C82.48791643 89.22308918 81.25849972 93.22844606 78.09448242 96.90332031 C73.01028368 100.74294957 69.38597616 101.31249699 63.18896484 101.32226562 C62.43738602 101.32723053 61.68580719 101.33219543 60.91145325 101.33731079 C58.42427658 101.35191906 55.9371637 101.35873246 53.44995117 101.36425781 C51.71983336 101.37001072 49.98971556 101.37576844 48.25959778 101.38153076 C44.6305817 101.39203719 41.00158774 101.39788208 37.37255859 101.40136719 C32.72879237 101.40684871 28.08531982 101.43087086 23.44164562 101.45933914 C19.86679742 101.4779897 16.29201959 101.48317243 12.71712685 101.48470306 C11.00555123 101.48772507 9.29397673 101.49573834 7.58244896 101.50888824 C5.18413522 101.52599826 2.78653409 101.52405657 0.38818359 101.51757812 C-0.31488922 101.52679291 -1.01796204 101.53600769 -1.74234009 101.54550171 C-6.3588069 101.50656023 -9.48210661 100.57928961 -13.40551758 98.16113281 C-17.88509327 93.19727866 -18.55887438 90.10798964 -18.58251953 83.59375 C-18.59237633 82.42270973 -18.59237633 82.42270973 -18.60243225 81.22801208 C-18.62218205 78.63800973 -18.63383241 76.04806543 -18.64379883 73.45800781 C-18.64991212 72.13153606 -18.64991212 72.13153606 -18.65614891 70.77826691 C-18.67701821 66.09648369 -18.69131541 61.41472985 -18.70068359 56.73291016 C-18.71174151 51.89958621 -18.74613168 47.06672349 -18.78585529 42.23356247 C-18.81201839 38.51545361 -18.82037522 34.7974546 -18.82396507 31.07926178 C-18.82883293 29.29789368 -18.84045261 27.51653054 -18.85900307 25.73525238 C-18.88338535 23.23849635 -18.88243135 20.74293271 -18.87548828 18.24609375 C-18.88829834 17.51339767 -18.9011084 16.7807016 -18.91430664 16.02580261 C-18.86287535 10.93805824 -17.57335726 8.09611945 -14.40551758 4.16113281 C-9.90107152 0.20268021 -5.78018984 0.00911158 0 0 Z " fill="#5F3DDE" transform="translate(18.405517578125,34.8388671875)"/>
<path d="M0 0 C2.3874181 6.67667775 4.14376966 13.3960284 5.6875 20.3125 C6.02491211 21.77526367 6.02491211 21.77526367 6.36914062 23.26757812 C7.28628427 27.32921425 8 30.8107992 8 35 C8.66 35 9.32 35 10 35 C10.09667969 33.93265625 10.19335938 32.8653125 10.29296875 31.765625 C11.02627724 25.93511617 12.67848773 20.38169009 14.3125 14.75 C14.60833984 13.67492187 14.90417969 12.59984375 15.20898438 11.4921875 C15.50740234 10.45835938 15.80582031 9.42453125 16.11328125 8.359375 C16.37923096 7.42577148 16.64518066 6.49216797 16.91918945 5.53027344 C18.17043319 2.60100077 19.54952742 1.01691184 22 -1 C24.9375 -1.5625 24.9375 -1.5625 28 -1 C32.28777174 2.54271447 33.85131161 5.49572432 35.23828125 10.83203125 C35.40877487 11.46864182 35.57926849 12.10525238 35.75492859 12.76115417 C36.29021996 14.7744379 36.80163225 16.79289682 37.3125 18.8125 C37.67356319 20.18726147 38.03617879 21.56161621 38.40039062 22.93554688 C39.2849198 26.2858517 40.14815966 29.64121543 41 33 C43.77145456 25.34992826 45.487995 17.6066762 47.10546875 9.64453125 C47.30785156 8.70222656 47.51023438 7.75992188 47.71875 6.7890625 C47.98075195 5.51603271 47.98075195 5.51603271 48.24804688 4.21728516 C49.10011294 1.70479684 49.84933879 0.54794032 52 -1 C58.44444444 -0.55555556 58.44444444 -0.55555556 60 1 C60.31648042 7.52896295 59.54723528 13.11595124 57.91796875 19.41796875 C57.70312332 20.27884598 57.48827789 21.13972321 57.266922 22.02668762 C56.81381391 23.83214593 56.35554682 25.63631672 55.89233398 27.43920898 C55.18753083 30.18737977 54.50178279 32.93980303 53.81835938 35.69335938 C53.37351483 37.45601195 52.9275882 39.21839186 52.48046875 40.98046875 C52.27721481 41.79621872 52.07396088 42.61196869 51.86454773 43.45243835 C50.70129083 47.9391274 49.37111072 51.96938743 47 56 C44.15916359 57.42041821 42.14522722 57.31452272 39 57 C34.9935839 53.94735617 33.88499092 50.3817904 32.67578125 45.6796875 C32.48404831 44.9798172 32.29231537 44.2799469 32.09477234 43.55886841 C31.48796356 41.3341253 30.89973027 39.10498227 30.3125 36.875 C29.7106366 34.6390955 29.10504338 32.40423662 28.49809265 30.16970825 C28.12253365 28.7818011 27.7506723 27.39288699 27.38288879 26.00289917 C26.43293651 22.41408623 26.43293651 22.41408623 25 19 C24.74307373 19.94319092 24.48614746 20.88638184 24.22143555 21.8581543 C23.26175692 25.37329149 22.29214317 28.88562473 21.31958008 32.3972168 C20.90086854 33.91437899 20.48481692 35.43227799 20.0715332 36.95092773 C19.47533037 39.13987459 18.86945664 41.32595028 18.26171875 43.51171875 C18.08033859 44.18587326 17.89895844 44.86002777 17.71208191 45.55461121 C16.52797163 49.76759732 15.16053692 53.83946308 12 57 C5.84692913 57.58047838 5.84692913 57.58047838 2.94433594 55.59106445 C0.09392326 51.79254239 -0.70318242 47.80400349 -1.796875 43.23046875 C-2.0353717 42.27610428 -2.27386841 41.32173981 -2.51959229 40.3384552 C-3.02028948 38.32194349 -3.51409405 36.30370951 -4.00146484 34.28393555 C-4.74576348 31.20502505 -5.51360295 28.13272734 -6.28515625 25.06054688 C-6.76963985 23.09670165 -7.25275788 21.13251892 -7.734375 19.16796875 C-7.96243835 18.25419968 -8.19050171 17.3404306 -8.42547607 16.39897156 C-11.28749092 4.42351232 -11.28749092 4.42351232 -8.9375 0 C-5.86664787 -1.58495594 -3.27813225 -0.68036707 0 0 Z " fill="#5D3BDE" transform="translate(117,46)"/>
<path d="M0 0 C4.15877551 7.23934996 6.21469908 14.97613128 8.43115234 22.96899414 C8.80664166 24.30963602 9.19220133 25.64750317 9.58837891 26.98217773 C10.61678859 30.44885493 11.21987259 33.37210229 11 37 C11.66 37 12.32 37 13 37 C13.09667969 35.93136719 13.19335938 34.86273438 13.29296875 33.76171875 C14.02354961 27.95161774 15.67784584 22.42241376 17.3125 16.8125 C17.60833984 15.74580078 17.90417969 14.67910156 18.20898438 13.58007812 C21.12792872 3.49931786 21.12792872 3.49931786 25 0 C28.5 -0.5625 28.5 -0.5625 32 0 C40.93408418 7.32029244 42.24429976 24.20307611 45 35 C47.20765877 31.68851184 47.85718664 29.10377474 48.8125 25.25 C50.24204368 19.66734988 51.82279186 14.16171558 53.625 8.6875 C54.02976563 7.45386719 54.43453125 6.22023438 54.8515625 4.94921875 C56 2 56 2 58 0 C61.10347254 -0.33015665 63.15781176 -0.50531294 65.875 1.125 C67.54110331 3.90183885 67.23494406 5.7622558 67 9 C66.2180668 12.1175561 65.17667132 15.12862561 64.11328125 18.16015625 C63.81439499 19.02764999 63.51550873 19.89514374 63.20756531 20.78892517 C62.57422825 22.61688749 61.93600674 24.44316391 61.29321289 26.26782227 C60.31652029 29.05104363 59.36556656 31.84218576 58.41601562 34.63476562 C57.79581898 36.41460272 57.1741235 38.19391838 56.55078125 39.97265625 C56.27035477 40.80297867 55.98992828 41.63330109 55.70100403 42.48878479 C53.94827747 47.3797019 52.17232842 50.66337473 48 54 C44.9375 54.625 44.9375 54.625 42 54 C38.39341316 50.31002387 36.88240286 46.43006594 35.5 41.5625 C35.2935083 40.86962891 35.0870166 40.17675781 34.87426758 39.46289062 C34.23698315 37.31202512 33.61685847 35.15680332 33 33 C32.59786305 31.61322127 32.19552528 30.22650075 31.79296875 28.83984375 C30.84964265 25.56320221 29.91840913 22.28369746 29 19 C28.47485201 20.67659951 27.94981907 22.35323512 27.42529297 24.0300293 C26.97196512 25.47835113 26.51785281 26.92642763 26.06298828 28.37426758 C24.9775414 31.8366527 23.91099541 35.3012463 22.8828125 38.78125 C22.55023438 39.9053125 22.21765625 41.029375 21.875 42.1875 C21.58367188 43.19167969 21.29234375 44.19585937 20.9921875 45.23046875 C18.47250859 52.2637457 18.47250859 52.2637457 15 54 C12.1875 54.4375 12.1875 54.4375 9 54 C4.50473536 49.53733847 2.59356484 45.08810243 0.66796875 39.12890625 C0.3864949 38.2883519 0.10502106 37.44779755 -0.1849823 36.58177185 C-0.77366168 34.81310738 -1.35569789 33.04221929 -1.93139648 31.26928711 C-2.81059004 28.56836748 -3.71511542 25.87692389 -4.62304688 23.18554688 C-5.19423777 21.45883852 -5.76394956 19.73164002 -6.33203125 18.00390625 C-6.60070511 17.20578018 -6.86937897 16.40765411 -7.14619446 15.58534241 C-8.63020184 10.9599519 -9.56869043 6.91597799 -9 2 C-5.5647952 -0.29013653 -4.014669 -0.17842973 0 0 Z " fill="#FBFAFE" transform="translate(22,60)"/>
<path d="M0 0 C0.76408676 -0.0004985 1.52817352 -0.00099701 2.31541443 -0.00151062 C3.92669279 0.00082488 5.53797514 0.01052254 7.14916992 0.02709961 C9.61605393 0.05073297 12.08185935 0.04765189 14.54882812 0.04101562 C16.11589186 0.04659144 17.68295105 0.05370071 19.25 0.0625 C19.9875502 0.06158859 20.7251004 0.06067719 21.48500061 0.05973816 C25.21431308 0.11143744 26.87586843 0.24146437 30.05859375 2.36328125 C30.43359375 5.36328125 30.43359375 5.36328125 30.05859375 8.36328125 C26.5184615 10.72336942 25.0473742 10.59791769 20.859375 10.55859375 C19.65087891 10.55214844 18.44238281 10.54570313 17.19726562 10.5390625 C15.30331055 10.51392578 15.30331055 10.51392578 13.37109375 10.48828125 C12.09685547 10.47925781 10.82261719 10.47023438 9.50976562 10.4609375 C6.35929521 10.43733847 3.20892113 10.40146704 0.05859375 10.36328125 C0.05859375 14.32328125 0.05859375 18.28328125 0.05859375 22.36328125 C1.82847656 22.34007813 3.59835938 22.316875 5.421875 22.29296875 C7.73827704 22.27421246 10.05468363 22.25601211 12.37109375 22.23828125 C13.53833984 22.22152344 14.70558594 22.20476562 15.90820312 22.1875 C17.02646484 22.18105469 18.14472656 22.17460938 19.296875 22.16796875 C20.32852783 22.15749512 21.36018066 22.14702148 22.4230957 22.13623047 C25.05859375 22.36328125 25.05859375 22.36328125 28.05859375 24.36328125 C28.24609375 27.48828125 28.24609375 27.48828125 28.05859375 30.36328125 C24.74028605 32.35288898 22.25899676 32.59945575 18.41796875 32.55859375 C17.34804687 32.55214844 16.278125 32.54570313 15.17578125 32.5390625 C14.06460938 32.52230469 12.9534375 32.50554687 11.80859375 32.48828125 C10.68195313 32.47925781 9.5553125 32.47023437 8.39453125 32.4609375 C5.61579453 32.43738888 2.83716716 32.4015185 0.05859375 32.36328125 C0.05859375 36.98328125 0.05859375 41.60328125 0.05859375 46.36328125 C3.03826172 46.32847656 3.03826172 46.32847656 6.078125 46.29296875 C8.00430806 46.27906129 9.93049237 46.26522499 11.85668945 46.25341797 C13.85178993 46.2384263 15.84680321 46.21301394 17.84179688 46.1875 C19.7222168 46.17783203 19.7222168 46.17783203 21.640625 46.16796875 C22.79796143 46.15749512 23.95529785 46.14702148 25.14770508 46.13623047 C28.05859375 46.36328125 28.05859375 46.36328125 31.05859375 48.36328125 C31.37109375 51.36328125 31.37109375 51.36328125 31.05859375 54.36328125 C28.46402372 56.95785128 26.651716 56.62193528 23.11524963 56.66682434 C21.89804482 56.66545723 21.89804482 56.66545723 20.65625 56.6640625 C19.82274521 56.66834763 18.98924042 56.67263275 18.13047791 56.67704773 C16.36604725 56.6827956 14.6015929 56.68328793 12.8371582 56.67895508 C10.13516842 56.6757977 7.43427597 56.6992387 4.73242188 56.72460938 C3.01953263 56.72688256 1.30664044 56.72758578 -0.40625 56.7265625 C-1.62041847 56.74037712 -1.62041847 56.74037712 -2.8591156 56.75447083 C-8.45656098 56.70823689 -8.45656098 56.70823689 -10.6534729 55.14518738 C-12.34379754 52.80655718 -12.32766671 51.35376409 -12.34545898 48.48046875 C-12.35814316 47.48934082 -12.37082733 46.49821289 -12.38389587 45.47705078 C-12.37949242 43.87385986 -12.37949242 43.87385986 -12.375 42.23828125 C-12.38024185 41.13983887 -12.3854837 40.04139648 -12.3908844 38.90966797 C-12.39731054 36.58627163 -12.39595999 34.26284277 -12.38745117 31.93945312 C-12.37893907 28.37701753 -12.40769983 24.81618341 -12.43945312 21.25390625 C-12.44106507 18.9986984 -12.44048773 16.7434877 -12.4375 14.48828125 C-12.44873398 13.4194873 -12.45996796 12.35069336 -12.47154236 11.24951172 C-12.45747093 9.76281982 -12.45747093 9.76281982 -12.44311523 8.24609375 C-12.44294907 7.37355957 -12.4427829 6.50102539 -12.44261169 5.60205078 C-11.94140625 3.36328125 -11.94140625 3.36328125 -10.13626099 1.58137512 C-6.86483792 -0.2341894 -3.6433498 -0.04561951 0 0 Z " fill="#5740DC" transform="translate(195.94140625,45.63671875)"/>
<path d="M0 0 C3.65510976 2.96076991 5.10869383 6.05484459 6.8046875 10.390625 C7.17200233 11.31703545 7.17200233 11.31703545 7.54673767 12.26216125 C8.33341006 14.25413946 9.10479327 16.25160394 9.875 18.25 C10.40910869 19.61735654 10.9438594 20.98446247 11.47924805 22.35131836 C12.52501147 25.02663731 13.56416019 27.70438522 14.59814453 30.38427734 C15.76208842 33.38636878 16.94771446 36.37738239 18.15234375 39.36328125 C18.70650436 40.76271411 19.25998122 42.1624181 19.8125 43.5625 C20.27269531 44.71878906 20.73289062 45.87507813 21.20703125 47.06640625 C22.06193762 50.2291387 22.05535142 51.92053869 21 55 C19 57 19 57 16.0625 57.3125 C13 57 13 57 11.4453125 55.8046875 C8.6836921 52.35639391 7.54403041 48.09966694 6 44 C-0.93 44 -7.86 44 -15 44 C-15.680625 45.959375 -16.36125 47.91875 -17.0625 49.9375 C-18.43359375 53.25390625 -18.43359375 53.25390625 -20 56 C-23.625 57.375 -23.625 57.375 -27 57 C-27.99 56.34 -28.98 55.68 -30 55 C-30.74423662 49.05320852 -29.01609836 44.47841631 -26.859375 39.06640625 C-26.53592102 38.22963852 -26.21246704 37.39287079 -25.87921143 36.53074646 C-25.19531406 34.76794913 -24.5058102 33.0073178 -23.81103516 31.2487793 C-22.75637408 28.57863761 -21.71851289 25.9024565 -20.68359375 23.22460938 C-20.01399685 21.504828 -19.34345443 19.78541441 -18.671875 18.06640625 C-18.36441345 17.27657852 -18.0569519 16.48675079 -17.74017334 15.67298889 C-16.25728326 11.92825588 -14.70876556 8.2154698 -13.02050781 4.55834961 C-12.58294159 3.60211952 -12.58294159 3.60211952 -12.13653564 2.62657166 C-9.00716081 -1.85208454 -4.84662426 -1.21165607 0 0 Z M-5 14 C-6.1721449 16.95619219 -7.33677476 19.91528789 -8.5 22.875 C-9.00080078 24.13763672 -9.00080078 24.13763672 -9.51171875 25.42578125 C-9.82753906 26.23144531 -10.14335937 27.03710938 -10.46875 27.8671875 C-10.76201172 28.61081543 -11.05527344 29.35444336 -11.35742188 30.12060547 C-12.10783991 31.98437213 -12.10783991 31.98437213 -12 34 C-7.05 34 -2.1 34 3 34 C2.0489378 31.03914599 1.0895501 28.08145821 0.125 25.125 C-0.14441406 24.28324219 -0.41382813 23.44148438 -0.69140625 22.57421875 C-0.95566406 21.76855469 -1.21992188 20.96289062 -1.4921875 20.1328125 C-1.73308105 19.38918457 -1.97397461 18.64555664 -2.22216797 17.87939453 C-2.94056343 15.80413562 -2.94056343 15.80413562 -5 14 Z " fill="#5E3BDE" transform="translate(307,46)"/>
<path d="M0 0 C2.875 0.875 2.875 0.875 4.875 3.875 C5.11550903 5.86820984 5.11550903 5.86820984 5.10205078 8.1628418 C5.10182419 9.45384041 5.10182419 9.45384041 5.10159302 10.7709198 C5.09127045 11.69600845 5.08094788 12.62109711 5.0703125 13.57421875 C5.0674826 14.52440384 5.06465271 15.47458893 5.06173706 16.4535675 C5.05053715 19.49000615 5.02543288 22.52615042 5 25.5625 C4.98996996 27.62043845 4.98084415 29.67838152 4.97265625 31.73632812 C4.95059842 36.7826656 4.91606982 41.82878288 4.875 46.875 C5.61661377 46.86452637 6.35822754 46.85405273 7.12231445 46.84326172 C10.47734193 46.80172804 13.83231533 46.77568211 17.1875 46.75 C18.35474609 46.73324219 19.52199219 46.71648437 20.72460938 46.69921875 C21.84287109 46.69277344 22.96113281 46.68632813 24.11328125 46.6796875 C25.14493408 46.66921387 26.17658691 46.65874023 27.23950195 46.64794922 C29.875 46.875 29.875 46.875 32.875 48.875 C33.1875 51.875 33.1875 51.875 32.875 54.875 C30.366779 57.383221 28.81346057 57.13129767 25.38905334 57.17854309 C24.6432048 57.17763168 23.89735626 57.17672028 23.12890625 57.17578125 C22.36198959 57.18006638 21.59507294 57.1843515 20.80491638 57.18876648 C19.18172188 57.19451323 17.55850162 57.19500749 15.93530273 57.19067383 C13.45056206 57.1875166 10.96701498 57.21095754 8.48242188 57.23632812 C6.9062515 57.23860136 5.33007793 57.2393045 3.75390625 57.23828125 C3.01008194 57.247491 2.26625763 57.25670074 1.49989319 57.26618958 C-3.64264359 57.22003722 -3.64264359 57.22003722 -5.81985474 55.66264343 C-7.5457177 53.2987475 -7.51136859 51.81436779 -7.52905273 48.90039062 C-7.54173691 47.88924194 -7.55442108 46.87809326 -7.56748962 45.83630371 C-7.56455399 44.74563599 -7.56161835 43.65496826 -7.55859375 42.53125 C-7.5638356 41.41061157 -7.56907745 40.28997314 -7.57447815 39.13537598 C-7.58090463 36.76490101 -7.57955331 34.39439419 -7.57104492 32.02392578 C-7.56253296 28.38907348 -7.59129312 24.75579077 -7.62304688 21.12109375 C-7.62465882 18.82031297 -7.62408148 16.5195294 -7.62109375 14.21875 C-7.63794472 12.58274841 -7.63794472 12.58274841 -7.65513611 10.91369629 C-7.64575516 9.90254761 -7.63637421 8.89139893 -7.62670898 7.84960938 C-7.62654282 6.9593103 -7.62637665 6.06901123 -7.62620544 5.1517334 C-7.125 2.875 -7.125 2.875 -5.28895569 1.05627441 C-3.125 -0.125 -3.125 -0.125 0 0 Z " fill="#4E45D9" transform="translate(242.125,45.125)"/>
<path d="M0 0 C1.98 0 3.96 0 6 0 C6.66 1.98 7.32 3.96 8 6 C8.309375 5.38125 8.61875 4.7625 8.9375 4.125 C9.625 2.75 10.3125 1.375 11 0 C12.98 0 14.96 0 17 0 C17 5.94 17 11.88 17 18 C15.68 18 14.36 18 13 18 C12.67 16.68 12.34 15.36 12 14 C11.34 15.32 10.68 16.64 10 18 C8.0625 17.6875 8.0625 17.6875 6 17 C5.67 16.01 5.34 15.02 5 14 C4.67 15.32 4.34 16.64 4 18 C2.68 18 1.36 18 0 18 C0 12.06 0 6.12 0 0 Z " fill="#5A3EDD" transform="translate(296,111)"/>
<path d="M0 0 C0.86625 -0.00773437 1.7325 -0.01546875 2.625 -0.0234375 C5.46572339 0.45313123 6.32964509 1.0565263 8 3.375 C9.02323896 8.25506275 9.7308954 11.9535503 7 16.375 C3.64741781 18.98256392 0.10195255 18.81449492 -4 18.375 C-6.36497439 16.50791495 -7.66030715 15.05438569 -9 12.375 C-8.984375 10.31640625 -8.984375 10.31640625 -8.75 7.9375 C-8.68296875 7.15503906 -8.6159375 6.37257813 -8.546875 5.56640625 C-7.34168294 0.73702948 -4.67981406 -0.04178405 0 0 Z M-4 5.375 C-4.41666667 8.875 -4.41666667 8.875 -4 12.375 C-3.34 13.035 -2.68 13.695 -2 14.375 C1.30683466 14.08516731 1.30683466 14.08516731 4 12.375 C4.42619701 8.16099965 4.42619701 8.16099965 2.625 4.5 C-0.30369085 2.4724448 -1.01170158 3.38280105 -4 5.375 Z " fill="#6F30E4" transform="translate(189,110.625)"/>
<path d="M0 0 C2.0625 0.4375 2.0625 0.4375 4 1 C4 2.65 4 4.3 4 6 C5.98 6 7.96 6 10 6 C10 4.02 10 2.04 10 0 C11.32 0 12.64 0 14 0 C15.48619895 2.97239791 15.13177009 5.69619578 15.125 9 C15.12886719 10.8871875 15.12886719 10.8871875 15.1328125 12.8125 C15 16 15 16 14 18 C12.68 17.67 11.36 17.34 10 17 C10 14.69 10 12.38 10 10 C8.02 10 6.04 10 4 10 C4 12.31 4 14.62 4 17 C2.0625 17.5625 2.0625 17.5625 0 18 C-1.82116003 16.17883997 -1.1323508 13.69328236 -1.13671875 11.2734375 C-1.13285156 10.52320312 -1.12898437 9.77296875 -1.125 9 C-1.12886719 8.24976562 -1.13273438 7.49953125 -1.13671875 6.7265625 C-1.12661053 1.12661053 -1.12661053 1.12661053 0 0 Z " fill="#7530E8" transform="translate(145,111)"/>
<path d="M0 0 C3.33738205 2.68618556 3.90802878 4.26423028 4.4375 8.5 C3.97918775 12.16649798 3.22769177 14.08686461 1 17 C-2.10048928 18.55024464 -4.57894218 18.28992015 -8 18 C-11.76146709 15.95572441 -12.77879397 14.74657034 -14 10.625 C-14 6.5246763 -13.20128746 4.42422494 -11 1 C-7.52499089 -0.73750455 -3.79143683 -0.58588811 0 0 Z M-6 3 C-7.62493901 4.12109566 -7.62493901 4.12109566 -9 6 C-9.4167552 9.04211431 -9.4167552 9.04211431 -9 12 C-8.34 12.66 -7.68 13.32 -7 14 C-3.69316534 13.71016731 -3.69316534 13.71016731 -1 12 C-0.95907063 9.66702567 -0.95758277 7.33294775 -1 5 C-3.475 4.01 -3.475 4.01 -6 3 Z " fill="#4946D8" transform="translate(175,111)"/>
<path d="M0 0 C1.19109375 0.00773437 1.19109375 0.00773437 2.40625 0.015625 C3.2003125 0.01046875 3.994375 0.0053125 4.8125 0 C6.90625 0.265625 6.90625 0.265625 8.90625 2.265625 C8.90625 3.585625 8.90625 4.905625 8.90625 6.265625 C7.58625 6.265625 6.26625 6.265625 4.90625 6.265625 C4.57625 5.605625 4.24625 4.945625 3.90625 4.265625 C2.91625 4.595625 1.92625 4.925625 0.90625 5.265625 C1.47214844 5.41257812 2.03804688 5.55953125 2.62109375 5.7109375 C4.87314219 6.39961312 6.85312612 7.10778365 8.90625 8.265625 C10.15625 11.203125 10.15625 11.203125 9.90625 14.265625 C8.40625 16.640625 8.40625 16.640625 5.90625 18.265625 C1.50421571 18.72899703 -0.3731664 18.74601407 -4.09375 16.265625 C-4.78125 14.140625 -4.78125 14.140625 -5.09375 12.265625 C-3.77375 11.935625 -2.45375 11.605625 -1.09375 11.265625 C-0.76375 12.255625 -0.43375 13.245625 -0.09375 14.265625 C1.55625 14.265625 3.20625 14.265625 4.90625 14.265625 C4.90625 13.275625 4.90625 12.285625 4.90625 11.265625 C3.978125 11.141875 3.05 11.018125 2.09375 10.890625 C-1.09375 10.265625 -1.09375 10.265625 -4.09375 8.265625 C-4.40625 5.265625 -4.40625 5.265625 -4.09375 2.265625 C-2.09375 0.265625 -2.09375 0.265625 0 0 Z " fill="#6733E2" transform="translate(115.09375,110.734375)"/>
<path d="M0 0 C1.22589844 0.01353516 1.22589844 0.01353516 2.4765625 0.02734375 C3.41628906 0.04474609 3.41628906 0.04474609 4.375 0.0625 C5.035 1.7125 5.695 3.3625 6.375 5.0625 C5.055 5.3925 3.735 5.7225 2.375 6.0625 C2.045 5.0725 1.715 4.0825 1.375 3.0625 C0.055 3.0625 -1.265 3.0625 -2.625 3.0625 C-1.00871879 6.29506243 2.14493715 6.73586704 5.375 8.0625 C6.375 9.0625 6.375 9.0625 6.625 12.5 C6.5425 13.675625 6.46 14.85125 6.375 16.0625 C2.66486601 18.53592266 0.76439738 18.44753486 -3.625 18.0625 C-6.0625 16.8125 -6.0625 16.8125 -7.625 15.0625 C-7.625 13.7425 -7.625 12.4225 -7.625 11.0625 C-6.305 11.0625 -4.985 11.0625 -3.625 11.0625 C-3.295 11.7225 -2.965 12.3825 -2.625 13.0625 C-1.305 12.7325 0.015 12.4025 1.375 12.0625 C0.80910156 11.82015625 0.24320312 11.5778125 -0.33984375 11.328125 C-1.07332031 10.99296875 -1.80679687 10.6578125 -2.5625 10.3125 C-3.29339844 9.98765625 -4.02429688 9.6628125 -4.77734375 9.328125 C-6.625 8.0625 -6.625 8.0625 -7.44140625 6.109375 C-7.625 4.0625 -7.625 4.0625 -6.625 1.0625 C-4.21954362 -0.14022819 -2.67503047 -0.03821472 0 0 Z " fill="#5D3AE0" transform="translate(322.625,110.9375)"/>
<path d="M0 0 C1.19109375 0.00773437 1.19109375 0.00773437 2.40625 0.015625 C3.2003125 0.01046875 3.994375 0.0053125 4.8125 0 C6.90625 0.265625 6.90625 0.265625 8.90625 2.265625 C8.90625 3.585625 8.90625 4.905625 8.90625 6.265625 C7.58625 6.265625 6.26625 6.265625 4.90625 6.265625 C4.57625 5.605625 4.24625 4.945625 3.90625 4.265625 C1.88161745 3.61349208 1.88161745 3.61349208 -0.09375 3.265625 C0.83234457 5.68120458 0.83234457 5.68120458 4.34375 6.578125 C7.90625 8.265625 7.90625 8.265625 9.46875 10.703125 C9.90625 13.265625 9.90625 13.265625 9.15625 15.515625 C7.90625 17.265625 7.90625 17.265625 5.90625 18.265625 C-0.31862223 18.84200206 -0.31862223 18.84200206 -3.53125 16.453125 C-5.09375 14.265625 -5.09375 14.265625 -5.09375 11.265625 C-2.61875 11.760625 -2.61875 11.760625 -0.09375 12.265625 C-0.09375 12.925625 -0.09375 13.585625 -0.09375 14.265625 C1.55625 14.265625 3.20625 14.265625 4.90625 14.265625 C4.90625 13.275625 4.90625 12.285625 4.90625 11.265625 C3.978125 11.141875 3.05 11.018125 2.09375 10.890625 C-1.09375 10.265625 -1.09375 10.265625 -4.09375 8.265625 C-4.40625 5.265625 -4.40625 5.265625 -4.09375 2.265625 C-2.09375 0.265625 -2.09375 0.265625 0 0 Z " fill="#5F3BDF" transform="translate(224.09375,110.734375)"/>
<path d="M0 0 C1.20462891 -0.02126953 1.20462891 -0.02126953 2.43359375 -0.04296875 C4.5625 0.1875 4.5625 0.1875 6.5625 2.1875 C6.1875 4.3125 6.1875 4.3125 5.5625 6.1875 C4.5725 6.1875 3.5825 6.1875 2.5625 6.1875 C2.2325 5.5275 1.9025 4.8675 1.5625 4.1875 C-0.46213255 3.53536708 -0.46213255 3.53536708 -2.4375 3.1875 C-1.51140543 5.60307958 -1.51140543 5.60307958 2 6.5 C5.5625 8.1875 5.5625 8.1875 7.125 10.625 C7.5625 13.1875 7.5625 13.1875 6.8125 15.4375 C5.5625 17.1875 5.5625 17.1875 3.5625 18.1875 C-2.66237223 18.76387706 -2.66237223 18.76387706 -5.875 16.375 C-7.4375 14.1875 -7.4375 14.1875 -7.4375 11.1875 C-6.1175 11.1875 -4.7975 11.1875 -3.4375 11.1875 C-3.1075 11.8475 -2.7775 12.5075 -2.4375 13.1875 C0.08983235 13.84305119 0.08983235 13.84305119 2.5625 14.1875 C2.5625 13.1975 2.5625 12.2075 2.5625 11.1875 C1.655 11.105 0.7475 11.0225 -0.1875 10.9375 C-3.83827839 10.09501268 -5.07134583 9.00868382 -7.4375 6.1875 C-5.07330247 0.04058642 -5.07330247 0.04058642 0 0 Z " fill="#5241DB" transform="translate(256.4375,110.8125)"/>
<path d="M0 0 C1.79244141 0.01740234 1.79244141 0.01740234 3.62109375 0.03515625 C5.41740234 0.04869141 5.41740234 0.04869141 7.25 0.0625 C8.17683594 0.07410156 9.10367187 0.08570312 10.05859375 0.09765625 C10.05859375 1.08765625 10.05859375 2.07765625 10.05859375 3.09765625 C7.08859375 3.09765625 4.11859375 3.09765625 1.05859375 3.09765625 C1.05859375 4.41765625 1.05859375 5.73765625 1.05859375 7.09765625 C3.69859375 7.09765625 6.33859375 7.09765625 9.05859375 7.09765625 C9.05859375 8.08765625 9.05859375 9.07765625 9.05859375 10.09765625 C6.41859375 10.09765625 3.77859375 10.09765625 1.05859375 10.09765625 C1.05859375 11.41765625 1.05859375 12.73765625 1.05859375 14.09765625 C4.02859375 14.09765625 6.99859375 14.09765625 10.05859375 14.09765625 C9.72859375 15.41765625 9.39859375 16.73765625 9.05859375 18.09765625 C7.07949977 18.12452178 5.10030404 18.14399 3.12109375 18.16015625 C2.01894531 18.17175781 0.91679687 18.18335938 -0.21875 18.1953125 C-2.94140625 18.09765625 -2.94140625 18.09765625 -3.94140625 17.09765625 C-4.04121839 14.42034245 -4.080205 11.7746145 -4.06640625 9.09765625 C-4.07027344 8.34742187 -4.07414062 7.5971875 -4.078125 6.82421875 C-4.06605059 0.13499504 -4.06605059 0.13499504 0 0 Z " fill="#4F44D9" transform="translate(283.94140625,110.90234375)"/>
<path d="M0 0 C0.7734375 -0.00773437 1.546875 -0.01546875 2.34375 -0.0234375 C5.02977045 0.47289237 5.93211776 1.1538335 7.5 3.375 C7.5 4.695 7.5 6.015 7.5 7.375 C5.23806201 6.890299 3.43034549 6.33812408 1.375 5.25 C0.75625 4.96125 0.1375 4.6725 -0.5 4.375 C-1.49 4.87 -1.49 4.87 -2.5 5.375 C-2.5 8.345 -2.5 11.315 -2.5 14.375 C-0.06282742 14.10465366 -0.06282742 14.10465366 2.5 13.375 C3.16 12.385 3.82 11.395 4.5 10.375 C5.49 10.375 6.48 10.375 7.5 10.375 C7.75 12.6875 7.75 12.6875 7.5 15.375 C5.14239439 18.10982251 3.59931686 18.36258539 0 18.8125 C-3.5 18.375 -3.5 18.375 -5.875 16.5 C-8.29974415 13.32918072 -8.63590759 11.85446202 -8.25 7.9375 C-8.18296875 7.15503906 -8.1159375 6.37257813 -8.046875 5.56640625 C-6.91253004 1.02092395 -4.46996774 -0.04469968 0 0 Z " fill="#5241DD" transform="translate(134.5,110.625)"/>
<path d="M0 0 C3.68754757 0.49831724 5.60490662 1.10067643 8 4 C8.4125 3.34 8.825 2.68 9.25 2 C9.8275 1.34 10.405 0.68 11 0 C12.32 0 13.64 0 15 0 C14.61002305 2.80783404 14.33156422 4.5993599 12.5 6.8125 C10.26176896 10.07658693 10.32647708 13.08227501 10 17 C8.0625 17.5625 8.0625 17.5625 6 18 C5 17 5 17 4.6875 13.3125 C4.22676473 9.02766195 2.52142979 6.49746713 0 3 C0 2.01 0 1.02 0 0 Z " fill="#5D39E0" transform="translate(234,111)"/>
<path d="M0 0 C4.95 0 9.9 0 15 0 C14.67 1.32 14.34 2.64 14 4 C12.68 4 11.36 4 10 4 C10 8.29 10 12.58 10 17 C8.68 17.33 7.36 17.66 6 18 C5 17 5 17 4.90234375 14.05859375 C4.91394531 12.86363281 4.92554688 11.66867188 4.9375 10.4375 C4.94652344 9.23996094 4.95554687 8.04242188 4.96484375 6.80859375 C4.97644531 5.88175781 4.98804688 4.95492187 5 4 C3.35 3.67 1.7 3.34 0 3 C0 2.01 0 1.02 0 0 Z " fill="#6239DF" transform="translate(264,111)"/>
<path d="M0 0 C1.32 0 2.64 0 4 0 C4 4.62 4 9.24 4 14 C6.64 14 9.28 14 12 14 C12 15.32 12 16.64 12 18 C10.18757948 18.02687279 8.37504767 18.04633715 6.5625 18.0625 C5.55316406 18.07410156 4.54382813 18.08570313 3.50390625 18.09765625 C1 18 1 18 0 17 C-0.07325168 14.13732433 -0.09238205 11.299281 -0.0625 8.4375 C-0.05798828 7.63119141 -0.05347656 6.82488281 -0.04882812 5.99414062 C-0.03700518 3.99606244 -0.01906914 1.99802217 0 0 Z " fill="#4948D8" transform="translate(200,111)"/>
<path d="M0 0 C1.98 0 3.96 0 6 0 C6 5.94 6 11.88 6 18 C4.68 18 3.36 18 2 18 C1.67 16.35 1.34 14.7 1 13 C0.67 13 0.34 13 0 13 C-0.19466332 11.20909747 -0.38051213 9.41723495 -0.5625 7.625 C-0.66691406 6.62726563 -0.77132813 5.62953125 -0.87890625 4.6015625 C-1 2 -1 2 0 0 Z " fill="#762CE7" transform="translate(307,111)"/>
<path d="M0 0 C2.93167219 0.31693753 4.58982661 0.63225834 6.8125 2.625 C8.47603223 5.95206447 8.38708602 8.32268277 8 12 C6.8125 14.875 6.8125 14.875 5 17 C2.3125 17.8125 2.3125 17.8125 0 18 C0.875 13.125 0.875 13.125 2 12 C2.04092937 9.66702567 2.04241723 7.33294775 2 5 C1.34 4.67 0.68 4.34 0 4 C0 2.68 0 1.36 0 0 Z " fill="#742EE5" transform="translate(171,111)"/>
<path d="M0 0 C2.0625 0.4375 2.0625 0.4375 4 1 C4 2.98 4 4.96 4 7 C4.66 7 5.32 7 6 7 C6 7.99 6 8.98 6 10 C5.34 10 4.68 10 4 10 C4 12.31 4 14.62 4 17 C2.0625 17.5625 2.0625 17.5625 0 18 C-1.82116003 16.17883997 -1.1323508 13.69328236 -1.13671875 11.2734375 C-1.13285156 10.52320312 -1.12898437 9.77296875 -1.125 9 C-1.12886719 8.24976562 -1.13273438 7.49953125 -1.13671875 6.7265625 C-1.12661053 1.12661053 -1.12661053 1.12661053 0 0 Z " fill="#434CD5" transform="translate(145,111)"/>
<path d="M0 0 C2.1875 0.3125 2.1875 0.3125 4 1 C4 1.99 4 2.98 4 4 C3.01 4.495 3.01 4.495 2 5 C1.53477707 9.79308342 1.53477707 9.79308342 3.5 13.9375 C3.995 14.288125 4.49 14.63875 5 15 C4.01 16.485 4.01 16.485 3 18 C-1.65177151 16.53101952 -1.65177151 16.53101952 -3.17578125 14.20703125 C-4.1182686 11.68330919 -4.12340509 10.10046971 -3.8125 7.4375 C-3.73644531 6.67308594 -3.66039062 5.90867187 -3.58203125 5.12109375 C-2.89275958 2.60918423 -2.06313938 1.56514022 0 0 Z " fill="#4649D7" transform="translate(184,111)"/>
<path d="M0 0 C1.19109375 0.00773437 1.19109375 0.00773437 2.40625 0.015625 C3.2003125 0.01046875 3.994375 0.0053125 4.8125 0 C6.90625 0.265625 6.90625 0.265625 8.90625 2.265625 C8.90625 3.585625 8.90625 4.905625 8.90625 6.265625 C7.58625 6.265625 6.26625 6.265625 4.90625 6.265625 C4.57625 5.605625 4.24625 4.945625 3.90625 4.265625 C2.91625 4.595625 1.92625 4.925625 0.90625 5.265625 C1.23625 6.255625 1.56625 7.245625 1.90625 8.265625 C1.57625 8.925625 1.24625 9.585625 0.90625 10.265625 C-1.56875 9.275625 -1.56875 9.275625 -4.09375 8.265625 C-4.21875 5.390625 -4.21875 5.390625 -4.09375 2.265625 C-2.09375 0.265625 -2.09375 0.265625 0 0 Z " fill="#5342DB" transform="translate(115.09375,110.734375)"/>
<path d="M0 0 C1.98 0 3.96 0 6 0 C5.67 0.66 5.34 1.32 5 2 C4.7677354 4.71262116 4.58063765 7.40773126 4.4375 10.125 C4.39431641 10.87910156 4.35113281 11.63320312 4.30664062 12.41015625 C4.2005168 14.27321888 4.09974999 16.13658524 4 18 C2.68 18 1.36 18 0 18 C0 12.06 0 6.12 0 0 Z " fill="#404BD5" transform="translate(296,111)"/>
<path d="M0 0 C0.66 0 1.32 0 2 0 C2 5.94 2 11.88 2 18 C1.01 17.67 0.02 17.34 -1 17 C-1.02684679 14.35409986 -1.04676357 11.70846904 -1.0625 9.0625 C-1.07087891 8.30775391 -1.07925781 7.55300781 -1.08789062 6.77539062 C-1.09652441 4.85005687 -1.05224333 2.92464419 -1 1 C-0.67 0.67 -0.34 0.34 0 0 Z " fill="#3E4ED4" transform="translate(281,111)"/>
<path d="M0 0 C1.32 0 2.64 0 4 0 C4.33 0.66 4.66 1.32 5 2 C6.98 2 8.96 2 11 2 C11 3.65 11 5.3 11 7 C4.65625 7.48798077 4.65625 7.48798077 1.5625 5.1875 C0 3 0 3 0 0 Z " fill="#613ADE" transform="translate(249,122)"/>
<path d="M0 0 C0.33 0 0.66 0 1 0 C1 5.28 1 10.56 1 16 C-2 13 -2 13 -3 11 C-2.94921875 8.90625 -2.94921875 8.90625 -2.6875 6.5 C-2.60886719 5.7059375 -2.53023438 4.911875 -2.44921875 4.09375 C-2 2 -2 2 0 0 Z " fill="#414CD5" transform="translate(129,112)"/>
<path d="M0 0 C2.375 0.1875 2.375 0.1875 5 1 C7.05372379 4.78317541 7.13305514 7.59564231 6.625 11.8125 C6.51414063 12.78832031 6.40328125 13.76414062 6.2890625 14.76953125 C6.19367188 15.50558594 6.09828125 16.24164063 6 17 C5.67 17 5.34 17 5 17 C4.87625 15.205625 4.87625 15.205625 4.75 13.375 C4.24092783 9.08207801 2.52928091 6.50835739 0 3 C0 2.01 0 1.02 0 0 Z " fill="#4949D9" transform="translate(234,111)"/>
<path d="M0 0 C0.99 0 1.98 0 3 0 C3.25 2.3125 3.25 2.3125 3 5 C1.25 6.8125 1.25 6.8125 -1 8 C-2.32 8 -3.64 8 -5 8 C-5 6.68 -5 5.36 -5 4 C-4.01 3.67 -3.02 3.34 -2 3 C-1.34 2.01 -0.68 1.02 0 0 Z " fill="#6A34E2" transform="translate(139,121)"/>
<path d="M0 0 C2.0625 0.4375 2.0625 0.4375 4 1 C4 1.66 4 2.32 4 3 C5.32 3 6.64 3 8 3 C8 4.32 8 5.64 8 7 C5.69 6.67 3.38 6.34 1 6 C0.34 4.35 -0.32 2.7 -1 1 C-0.67 0.67 -0.34 0.34 0 0 Z " fill="#583FDA" transform="translate(111,122)"/>
<path d="M0 0 C2.475 0.495 2.475 0.495 5 1 C5 1.66 5 2.32 5 3 C5.99 3 6.98 3 8 3 C7.67 4.32 7.34 5.64 7 7 C4.625 6.6875 4.625 6.6875 2 6 C0 3 0 3 0 0 Z " fill="#4C49D9" transform="translate(219,122)"/>
<path d="M0 0 C1.32 0 2.64 0 4 0 C3.4739075 3.78786597 2.61896089 6.17152224 0 9 C-0.66 9 -1.32 9 -2 9 C-2.25 3.375 -2.25 3.375 0 0 Z " fill="#732EE4" transform="translate(245,111)"/>
<path d="M0 0 C4.75 0.75 4.75 0.75 7 3 C7 4.32 7 5.64 7 7 C3.64404172 6.40072174 1.62198774 5.15377564 -1 3 C-0.67 2.01 -0.34 1.02 0 0 Z " fill="#732FE5" transform="translate(135,111)"/>
<path d="M0 0 C2.875 -0.125 2.875 -0.125 6 0 C8 2 8 2 8 6 C6.68 6 5.36 6 4 6 C3.67 5.34 3.34 4.68 3 4 C2.01 3.67 1.02 3.34 0 3 C0 2.01 0 1.02 0 0 Z " fill="#7031E4" transform="translate(225,111)"/>
<path d="M0 0 C1.32 1.32 2.64 2.64 4 4 C3.34 5.98 2.68 7.96 2 10 C1.34 10 0.68 10 0 10 C-0.95024979 6.30458414 -0.95024979 3.69541586 0 0 Z " fill="#7B2AE9" transform="translate(260,118)"/>
<path d="M0 0 C2.31 0 4.62 0 7 0 C6.67 1.32 6.34 2.64 6 4 C4.02 4 2.04 4 0 4 C0 2.68 0 1.36 0 0 Z " fill="#7031E4" transform="translate(287,125)"/>
<path d="M0 0 C2.475 0.495 2.475 0.495 5 1 C5.33 2.32 5.66 3.64 6 5 C4.68 5.33 3.36 5.66 2 6 C0 3 0 3 0 0 Z " fill="#772EE6" transform="translate(257,111)"/>
<path d="M0 0 C1.98 0.495 1.98 0.495 4 1 C4.33 2.65 4.66 4.3 5 6 C3.68 6 2.36 6 1 6 C-0.0625 4.125 -0.0625 4.125 -1 2 C-0.67 1.34 -0.34 0.68 0 0 Z " fill="#722DE5" transform="translate(119,111)"/>
<path d="M0 0 C1.32 0 2.64 0 4 0 C4.33 1.98 4.66 3.96 5 6 C3.68 5.67 2.36 5.34 1 5 C0.67 3.35 0.34 1.7 0 0 Z " fill="#414CD8" transform="translate(315,122)"/>
<path d="M0 0 C1.32 0 2.64 0 4 0 C4.33 1.98 4.66 3.96 5 6 C3.68 5.67 2.36 5.34 1 5 C0.67 3.35 0.34 1.7 0 0 Z " fill="#434BD6" transform="translate(249,122)"/>
<path d="M0 0 C0.33 0 0.66 0 1 0 C1 2.97 1 5.94 1 9 C0.01 8.67 -0.98 8.34 -2 8 C-2.125 5.125 -2.125 5.125 -2 2 C-1.34 1.34 -0.68 0.68 0 0 Z " fill="#424BD5" transform="translate(113,111)"/>
<path d="M0 0 C0 1.65 0 3.3 0 5 C-1.98 5 -3.96 5 -6 5 C-5.67 3.68 -5.34 2.36 -5 1 C-1.125 0 -1.125 0 0 0 Z " fill="#5A39E0" transform="translate(325,124)"/>
<path d="M0 0 C2.475 0.495 2.475 0.495 5 1 C5 2.32 5 3.64 5 5 C3.35 4.67 1.7 4.34 0 4 C0 2.68 0 1.36 0 0 Z " fill="#6438DF" transform="translate(225,117)"/>
<path d="M0 0 C0.66 0 1.32 0 2 0 C2.6875 2.8125 2.6875 2.8125 3 6 C2.01 6.99 1.02 7.98 0 9 C0 6.03 0 3.06 0 0 Z " fill="#7A27E9" transform="translate(122,119)"/>
<path d="M0 0 C2.31 0 4.62 0 7 0 C7 0.99 7 1.98 7 3 C4.69 3 2.38 3 0 3 C0 2.01 0 1.02 0 0 Z " fill="#7030E4" transform="translate(287,111)"/>
<path d="M0 0 C0.99 0.33 1.98 0.66 3 1 C3.6875 3.0625 3.6875 3.0625 4 5 C2.68 5.33 1.36 5.66 0 6 C-1.24546405 3.50907189 -0.7767578 2.58919267 0 0 Z " fill="#7728E8" transform="translate(325,111)"/>
<path d="M0 0 C1.65 0.33 3.3 0.66 5 1 C4.67 1.99 4.34 2.98 4 4 C2.35 4 0.7 4 -1 4 C-0.67 2.68 -0.34 1.36 0 0 Z " fill="#782DE6" transform="translate(208,125)"/>
<path d="M0 0 C0.99 0 1.98 0 3 0 C3 1.98 3 3.96 3 6 C2.01 5.67 1.02 5.34 0 5 C-0.75 3 -0.75 3 -1 1 C-0.67 0.67 -0.34 0.34 0 0 Z " fill="#404DD3" transform="translate(111,122)"/>
<path d="M0 0 C0.99 0 1.98 0 3 0 C3.1875 2.375 3.1875 2.375 3 5 C2.01 5.66 1.02 6.32 0 7 C0 4.69 0 2.38 0 0 Z " fill="#8428E9" transform="translate(139,121)"/>
<path d="M0 0 C1.98 0 3.96 0 6 0 C6 0.99 6 1.98 6 3 C4.02 3 2.04 3 0 3 C0 2.01 0 1.02 0 0 Z " fill="#6D32E3" transform="translate(287,118)"/>
<path d="M0 0 C1.65 0 3.3 0 5 0 C4.67 1.32 4.34 2.64 4 4 C2.68 3.67 1.36 3.34 0 3 C0 2.01 0 1.02 0 0 Z " fill="#444BD6" transform="translate(264,111)"/>
</svg>
